<svg xmlns="http://www.w3.org/2000/svg" preserveAspectRatio="none" viewBox="0 0 80 80">
    <rect width="80" height="80" fill="#68B738"/>
    <ellipse cx="45.2042" cy="34.3299" rx="1.0873" ry="1.08512" fill="white"/>
    <ellipse cx="34.3312" cy="34.3299" rx="1.08731" ry="1.08512" fill="white"/>
    <ellipse cx="34.3312" cy="47.3512" rx="1.08731" ry="1.08512" fill="white"/>
    <ellipse cx="39.7677" cy="49.5215" rx="1.0873" ry="1.08512" fill="white"/>
    <ellipse cx="31.0692" cy="40.7748" rx="1.08731" ry="1.08512" fill="white"/>
    <ellipse cx="48.466" cy="40.7748" rx="1.0873" ry="1.08512" fill="white"/>
    <ellipse cx="45.2042" cy="47.3512" rx="1.0873" ry="1.08512" fill="white"/>
    <mask id="path-9-inside-1" fill="white">
      <path fill-rule="evenodd" clip-rule="evenodd" d="M44.9215 52.0581C45.3298 51.8622 45.8226 51.9298 46.1385 52.2542L47.9644 54.1292C48.2319 54.4039 48.6734 54.4039 48.941 54.1292C49.1987 53.8645 49.1987 53.4427 48.941 53.1781L47.5843 51.7849C47.1584 51.3475 47.2228 50.6356 47.682 50.2333C50.3238 47.9195 52 44.4688 52 40.6145C52 33.6477 46.5235 28 39.7678 28C33.0122 28 27.5356 33.6477 27.5356 40.6145C27.5356 44.4288 29.1773 47.8477 31.7717 50.1608C32.2244 50.5644 32.2849 51.2708 31.8617 51.7054L30.4276 53.1781C30.1698 53.4427 30.1698 53.8645 30.4276 54.1291C30.6951 54.4039 31.1366 54.4039 31.4042 54.1292L33.2838 52.199C33.6025 51.8718 34.1004 51.8061 34.5102 52.0076C36.103 52.7907 37.8858 53.229 39.7678 53.229C41.609 53.229 43.3553 52.8095 44.9215 52.0581ZM39.7678 51.8274C45.7728 51.8274 50.6409 46.8072 50.6409 40.6145C50.6409 34.4218 45.7728 29.4016 39.7678 29.4016C33.7628 29.4016 28.8948 34.4218 28.8948 40.6145C28.8948 46.8072 33.7628 51.8274 39.7678 51.8274ZM39.0083 40.298V36.5001V32.9409C39.0083 32.5094 39.3581 32.1596 39.7895 32.1596C40.221 32.1596 40.5708 32.5094 40.5708 32.9409V36.5001V40.298V40.8406V41.1226C40.5708 41.5661 40.2113 41.9257 39.7677 41.9257C39.3483 41.9257 39.0083 41.5857 39.0083 41.1663V40.8406V40.298Z"/>
    </mask>
    <path fill-rule="evenodd" clip-rule="evenodd" d="M44.9215 52.0581C45.3298 51.8622 45.8226 51.9298 46.1385 52.2542L47.9644 54.1292C48.2319 54.4039 48.6734 54.4039 48.941 54.1292C49.1987 53.8645 49.1987 53.4427 48.941 53.1781L47.5843 51.7849C47.1584 51.3475 47.2228 50.6356 47.682 50.2333C50.3238 47.9195 52 44.4688 52 40.6145C52 33.6477 46.5235 28 39.7678 28C33.0122 28 27.5356 33.6477 27.5356 40.6145C27.5356 44.4288 29.1773 47.8477 31.7717 50.1608C32.2244 50.5644 32.2849 51.2708 31.8617 51.7054L30.4276 53.1781C30.1698 53.4427 30.1698 53.8645 30.4276 54.1291C30.6951 54.4039 31.1366 54.4039 31.4042 54.1292L33.2838 52.199C33.6025 51.8718 34.1004 51.8061 34.5102 52.0076C36.103 52.7907 37.8858 53.229 39.7678 53.229C41.609 53.229 43.3553 52.8095 44.9215 52.0581ZM39.7678 51.8274C45.7728 51.8274 50.6409 46.8072 50.6409 40.6145C50.6409 34.4218 45.7728 29.4016 39.7678 29.4016C33.7628 29.4016 28.8948 34.4218 28.8948 40.6145C28.8948 46.8072 33.7628 51.8274 39.7678 51.8274ZM39.0083 40.298V36.5001V32.9409C39.0083 32.5094 39.3581 32.1596 39.7895 32.1596C40.221 32.1596 40.5708 32.5094 40.5708 32.9409V36.5001V40.298V40.8406V41.1226C40.5708 41.5661 40.2113 41.9257 39.7677 41.9257C39.3483 41.9257 39.0083 41.5857 39.0083 41.1663V40.8406V40.298Z" fill="white"/>
    <rect x="39" y="29" width="4" height="1.5" transform="rotate(-90 39 29)" fill="white"/>
    <rect x="32" y="25" width="15.5" height="1.5" rx="0.75" fill="white"/>
</svg>
